<svg width="1024" height="1024" viewBox="0 0 40 40" fill="none" xmlns="http://www.w3.org/2000/svg">
  <defs>
    <!-- Premium Gradient: Indigo to Violet to Rose -->
    <linearGradient id="bg" x1="4" y1="4" x2="36" y2="36" gradientUnits="userSpaceOnUse">
      <stop offset="0%" stop-color="#4F46E5" />
      <stop offset="50%" stop-color="#8B5CF6" />
      <stop offset="100%" stop-color="#F43F5E" />
    </linearGradient>

    <!-- Glass gloss shine gradient -->
    <linearGradient id="shine" x1="0" y1="4" x2="0" y2="20" gradientUnits="userSpaceOnUse">
      <stop offset="0%" stop-color="white" stop-opacity="0.25" />
      <stop offset="100%" stop-color="white" stop-opacity="0" />
    </linearGradient>

    <!-- Center radial glow behind the face -->
    <radialGradient id="glow" cx="50%" cy="50%" r="50%">
      <stop offset="0%" stop-color="white" stop-opacity="0.18" />
      <stop offset="100%" stop-color="white" stop-opacity="0" />
    </radialGradient>

    <clipPath id="squircle">
      <rect x="4" y="4" width="32" height="32" rx="7" ry="7" />
    </clipPath>
  </defs>

  <!-- Squircle background: 10% padding matches macOS icon spec -->
  <rect x="4" y="4" width="32" height="32" rx="7" ry="7" fill="url(#bg)" />

  <!-- Glass shine overlay clipped to squircle -->
  <rect x="4" y="4" width="32" height="16" fill="url(#shine)" clip-path="url(#squircle)" />

  <!-- Center radial glow -->
  <circle cx="20" cy="20" r="16" fill="url(#glow)" clip-path="url(#squircle)" />

  <!-- Inset Border for a crisp, high-end feel -->
  <rect x="4.5" y="4.5" width="31" height="31" rx="6.5" ry="6.5" stroke="white" stroke-width="1" stroke-opacity="0.18" fill="none" />

  <!-- Elements: Face & Camera Corners -->
  <g clip-path="url(#squircle)">
    <!-- Left Eye (normal circle) -->
    <circle cx="14.5" cy="16" r="2.2" fill="white" />

    <!-- Right Eye (Magic Sparkle star representing AI generation, scaled to 6.4px) -->
    <path d="M25.5,12.8 Q25.5,16 28.7,16 Q25.5,16 25.5,19.2 Q25.5,16 22.3,16 Q25.5,16 25.5,12.8 Z" fill="white" />

    <!-- Smile arc (elegant and friendly curve) -->
    <path d="M13,22 Q20,29.5 27,22"
          stroke="white" stroke-width="2.2" stroke-linecap="round" fill="none" />

    <!-- Focus corners representing camera framing/cropping (refined thickness & spacing) -->
    <path d="M13,9 H9 V13" stroke="white" stroke-width="1.6" stroke-linecap="round" stroke-linejoin="round" fill="none" />
    <path d="M27,9 H31 V13" stroke="white" stroke-width="1.6" stroke-linecap="round" stroke-linejoin="round" fill="none" />
    <path d="M9,27 V31 H13" stroke="white" stroke-width="1.6" stroke-linecap="round" stroke-linejoin="round" fill="none" />
    <path d="M31,27 V31 H27" stroke="white" stroke-width="1.6" stroke-linecap="round" stroke-linejoin="round" fill="none" />
  </g>
</svg>
